<svg
  xmlns="http://www.w3.org/2000/svg"
  viewBox="0 0 260 60"
  role="img"
  aria-labelledby="title desc"
>
  <title id="title">BBMI Logo</title>
  <desc id="desc">Logo with three vertical data bars and the text bbmi</desc>

  <!-- Navy background is NOT included so it stays transparent -->
  <!-- Set color via CSS or inline fill -->

  <!-- Data bars -->
  <g fill="#0B1C3F">
    <rect x="0" y="30" width="10" height="30" rx="2" />
    <rect x="18" y="20" width="10" height="40" rx="2" />
    <rect x="36" y="10" width="10" height="50" rx="2" />
  </g>

  <!-- bbmi text -->
  <g fill="#0B1C3F">
    <!-- b -->
    <path d="M70 18c0-3.5 2.6-6 6.2-6 2.1 0 3.8.8 5 2.3V12h5v36h-5v-8.3c-1.2 1.5-2.9 2.3-5 2.3-3.6 0-6.2-2.5-6.2-6V18zm11.2 6.2c0-2.1-1.4-3.7-3.6-3.7s-3.6 1.6-3.6 3.7v7.6c0 2.1 1.4 3.7 3.6 3.7s3.6-1.6 3.6-3.7v-7.6z" />
    <!-- second b -->
    <path d="M99 18c0-3.5 2.6-6 6.2-6 2.1 0 3.8.8 5 2.3V12h5v36h-5v-8.3c-1.2 1.5-2.9 2.3-5 2.3-3.6 0-6.2-2.5-6.2-6V18zm11.2 6.2c0-2.1-1.4-3.7-3.6-3.7s-3.6 1.6-3.6 3.7v7.6c0 2.1 1.4 3.7 3.6 3.7s3.6-1.6 3.6-3.7v-7.6z" />
    <!-- m -->
    <path d="M129 18h5v3.1c1.1-2.2 3.1-3.6 5.8-3.6 2.7 0 4.7 1.4 5.8 3.6 1.2-2.2 3.3-3.6 6-3.6 4 0 6.6 2.8 6.6 7.1V36h-5v-9.4c0-2.3-1.3-3.8-3.4-3.8-2.1 0-3.5 1.5-3.5 3.8V36h-5v-9.4c0-2.3-1.3-3.8-3.4-3.8-2.1 0-3.5 1.5-3.5 3.8V36h-5V18z" />
    <!-- i -->
    <path d="M168 12h5v6h-5V12zm0 6h5v18h-5V18z" />
  </g>
</svg>