<?xml version="1.0" encoding="UTF-8" standalone="no"?>
<!-- Generator: Adobe Illustrator 25.2.0, SVG Export Plug-In . SVG Version: 6.00 Build 0)  -->

<svg
   version="1.1"
   id="Layer_1"
   x="0px"
   y="0px"
   viewBox="0 0 500 500"
   xml:space="preserve"
   sodipodi:docname="ncaa2.svg"
   inkscape:version="1.4.3 (0d15f75, 2025-12-25)"
   width="500"
   height="500"
   xmlns:inkscape="http://www.inkscape.org/namespaces/inkscape"
   xmlns:sodipodi="http://sodipodi.sourceforge.net/DTD/sodipodi-0.dtd"
   xmlns="http://www.w3.org/2000/svg"
   xmlns:svg="http://www.w3.org/2000/svg"><defs
   id="defs114" /><sodipodi:namedview
   id="namedview114"
   pagecolor="#000000"
   bordercolor="#000000"
   borderopacity="0"
   inkscape:showpageshadow="2"
   inkscape:pageopacity="0.0"
   inkscape:pagecheckerboard="false"
   inkscape:deskcolor="#d1d1d1"
   inkscape:zoom="0.491"
   inkscape:cx="330.95723"
   inkscape:cy="534.62322"
   inkscape:window-width="1080"
   inkscape:window-height="1849"
   inkscape:window-x="-8"
   inkscape:window-y="990"
   inkscape:window-maximized="1"
   inkscape:current-layer="g114"
   borderlayer="true" />


<g
   id="g114"
   transform="translate(-250,-250)">
	<polygon
   style="clip-rule:evenodd;display:none;fill:#ffffff;fill-rule:evenodd"
   points="250,750 250,250 750,250 750,750 "
   id="polygon92" />
	<polygon
   style="clip-rule:evenodd;display:inline;fill:#095ba6;fill-rule:evenodd"
   points="285.262,725.522 380.959,370.438 691.493,370.438 595.801,725.522 "
   id="polygon93" />
	<path
   style="clip-rule:evenodd;fill:#ffffff;fill-rule:evenodd"
   d="m 638.073,573.99 c 54.154,-20.429 84.99,-47.556 88.31,-76.359 6.3,-54.732 -80.262,-101.563 -193.327,-104.604 -112.114,-3.021 -208.189,38.157 -215.939,92.206 16.314,-45.763 99.773,-79.369 196.045,-76.781 103.788,2.797 183.154,46.604 177.256,97.85 -2.159,18.815 -25.784,43.654 -49.895,54.818 z"
   id="path93" />
	<path
   style="clip-rule:evenodd;fill:#fa002c;fill-rule:evenodd"
   d="m 514.39,398.663 c 103.797,2.797 183.164,46.604 177.265,97.85 -4.532,39.37 -58.063,71.676 -129.701,83.264 90.082,-8.43 160.332,-45.579 165.667,-91.938 6.29,-54.728 -80.257,-101.56 -193.328,-104.606 -112.121,-3.015 -212.268,41.218 -220.012,95.267 16.315,-45.768 103.85,-82.427 200.109,-79.837 z"
   id="path94" />
	<path
   style="clip-rule:evenodd;fill:#ffffff;fill-rule:evenodd"
   d="m 300.766,667.787 80.2,-297.349 128.004,-0.243 7.571,-0.006 c 0,0 3.448,3.518 5.445,4.352 26.005,10.833 50.424,32.29 69.115,59.505 0.546,0.781 1.49,-0.76 1.49,-0.76 l 5.888,11.431 c 0,0 0.99,2.56 1.204,2.918 18.546,32.076 29.249,70.273 26.493,107.99 -0.068,0.846 0.188,3.311 0.119,4.149 -0.235,2.64 -3.158,25.966 -3.158,25.966 0,0 0.401,-10.076 -0.588,-5.339 -6.837,32.483 -21.09,62.641 -43.123,87.589 l -66.222,-0.054 z"
   id="path95" />
	<path
   style="clip-rule:evenodd;fill:#fa002c;fill-rule:evenodd"
   d="m 513.212,667.947 c 12.231,-12.485 23.101,-26.791 32.587,-42.565 26.228,-45.162 36.649,-92.974 30.956,-142.052 l -1.699,-14.59 8.8,11.763 c 0.644,0.862 1.515,1.875 2.445,2.946 2.91,3.387 6.537,7.594 7.938,12.627 l 0.141,0.508 0.008,0.52 c 0.082,10.947 1.818,22.601 3.487,33.875 2.493,16.768 6.137,33.779 3.474,50.271 0,-0.013 -1.185,17.243 -3.669,28.359 -3.261,14.548 -8.932,36.254 -21.726,58.383 z"
   id="path96" />
	<path
   style="clip-rule:evenodd;fill:#fa002c;fill-rule:evenodd"
   d="M 300.822,667.787 330.56,557.324 c 5.829,-0.301 22.058,-0.314 26.428,-0.415 2.68,-0.066 4.987,-0.119 6.949,-0.202 57.276,-2.42 85.981,-11.535 99.969,-18.75 37.087,-19.142 48.918,-48.93 52.285,-60.851 4.319,-15.273 5.676,-31.66 3.555,-42.768 l -1.575,-8.211 7.349,3.99 c 11.547,6.268 20.812,13.552 30.605,21.259 2.126,1.662 2.339,4.157 2.459,5.495 0.017,0.196 0.043,0.467 0.052,0.559 0,0 -0.009,-0.092 -0.068,-0.233 l 0.102,0.25 0.051,0.263 c 3.918,17.343 4.404,49.698 4.404,49.698 l -0.282,-3.907 c -0.538,35.903 -10.89,74.03 -29.155,107.35 -11.871,21.644 -26.765,40.925 -44.049,57.087 z"
   id="path97" />
	<path
   style="clip-rule:evenodd;fill:#fa002c;fill-rule:evenodd"
   d="m 372.799,400.788 c 9.085,-1.513 12.507,-1.504 19.355,-1.951 35.46,-1.619 67.115,3.549 99.698,16.244 l 1.874,0.735 0.517,1.944 c 3.652,13.856 3.727,27.89 0.204,41.701 -5.894,25.718 -22.15,45.553 -45.747,55.757 -26.251,12.435 -56.752,14.568 -86.254,16.631 -5.542,0.383 -19.415,0.716 -25.305,1.176 z"
   id="path98" />
	<path
   style="clip-rule:evenodd;fill:#fa002c;fill-rule:evenodd"
   d="m 602.602,488.945 c 0.129,-8.189 0.572,-27.687 -4.344,-45.175 l 9.247,15.221 c 12.893,25.563 19.567,59.727 19.567,75.537 0,12.97 -0.794,25.874 -0.794,25.874 -2.107,-22.439 -13.28,-54.115 -23.151,-69.446 l -0.534,-0.93 z"
   id="path99" />
	<path
   style="clip-rule:evenodd;fill:#fa002c;fill-rule:evenodd"
   d="m 568.578,444.822 c -9.081,-24.829 -27.567,-56.454 -52.165,-74.523 l 20.74,11.301 c 23.787,14.861 40.677,30.61 54.781,51.066 l 0.495,0.721 0.15,0.868 c 1.395,8.377 2.138,18.688 2.112,29.821 l -0.009,10.933 -6.989,-8.411 c -7.448,-8.968 -13.559,-15.802 -18.168,-20.313 l -0.64,-0.623 z"
   id="path100" />
	<path
   style="clip-rule:evenodd;fill:#fa002c;fill-rule:evenodd"
   d="m 375.901,390.497 c 33.516,-4.361 70.526,-4.453 102.717,5.263 l 12.651,3.813 -8.469,-10.142 c -6.212,-7.448 -13.003,-13.836 -20.148,-19.023 l -81.693,0.03 z"
   id="path101" />
	<path
   style="clip-rule:evenodd;fill:#fa002c;fill-rule:evenodd"
   d="m 508.826,370.382 c 1.757,1.298 3.423,2.779 4.966,4.454 l -0.417,-0.393 c 12.145,9.822 24.614,26.791 33.346,45.376 l 6.094,12.968 -11.89,-8.001 c -9.107,-6.135 -17.052,-10.65 -27.432,-15.587 l -1.16,-0.546 -0.609,-1.118 c -6.876,-12.488 -19.251,-26.043 -37.36,-37.188 z"
   id="path102" />
	<path
   style="clip-rule:evenodd;fill:#fa002c;fill-rule:evenodd"
   d="m 580.01,667.987 c 5.924,-10.31 12.665,-25.076 12.665,-25.076 10.55,-25.318 16.054,-56.759 16.371,-84.662 v 0.307 c -0.154,-2.346 -0.26,-4.777 -0.376,-7.35 -0.248,-5.747 -1.408,-11.56 -2.304,-16.791 -1.024,-6.004 -1.95,-14.515 -2.603,-23.752 8.228,12.55 11.19,21.879 11.19,21.879 7.16,22.278 12.601,45.962 4.054,68.204 l 0.093,-0.279 c -4.156,13.822 -14.228,35.359 -19.843,43.852 -4.523,6.843 -13.152,17.925 -18.234,23.688 z"
   id="path103" />
	<path
   style="clip-rule:evenodd;fill:#ffffff;fill-rule:evenodd"
   d="m 352.116,476.198 c -44.603,16.045 -76.276,42.413 -79.737,72.482 -6.297,54.728 80.266,101.565 193.332,104.61 112.119,3.021 212.263,-42.236 220.004,-96.285 -16.297,45.764 -103.84,83.441 -200.1,80.851 -103.793,-2.793 -183.168,-46.601 -177.272,-97.846 2.355,-20.499 17.074,-39.188 40.465,-52.985 z"
   id="path104" />
	<path
   style="clip-rule:evenodd;fill:#095ba6;fill-rule:evenodd"
   d="m 355.52,462.647 c -44.621,16.995 -78.442,46.163 -81.899,76.246 -6.303,54.727 80.264,101.559 193.326,104.605 112.12,3.015 212.265,-42.235 220.005,-96.286 -16.302,45.771 -103.84,83.448 -200.104,80.856 -103.793,-2.798 -183.158,-46.601 -177.267,-97.847 2.364,-20.565 19.139,-39.262 42.645,-54.023 z"
   id="path105" />
	<path
   style="clip-rule:evenodd;fill:#ffffff;fill-rule:evenodd"
   d="m 309.864,685.318 h -2.843 l 1.647,-5.554 h 16.684 c 5.125,0 8.769,1.963 6.883,8.333 -1.317,4.454 -4.381,7.662 -8.646,8.379 l -0.026,0.096 c 4.207,0.34 5.654,3.452 4.252,8.193 -2.098,7.085 -7.276,9.29 -13.14,9.29 H 298.51 l 1.647,-5.558 h 2.845 z m 7.879,8.617 c 3.06,0 5.069,-1.096 6.149,-4.74 1.035,-3.493 -0.751,-4.165 -3.506,-4.165 h -2.674 l -2.64,8.906 h 2.671 z m -3.833,14.849 c 2.714,0 5.121,-1.434 6.074,-4.645 1.08,-3.64 -0.053,-4.933 -3.239,-4.933 h -3.232 l -2.835,9.578 z"
   id="path106" />
	<path
   style="clip-rule:evenodd;fill:#ffffff;fill-rule:evenodd"
   d="M 349.535,704.24 H 339.4 l -2.551,4.257 h 3.321 l -1.646,5.558 h -12.417 l 1.643,-5.558 h 1.854 l 18.042,-28.733 h 9.57 l 0.931,28.733 h 1.767 l -1.649,5.558 h -13.581 l 1.652,-5.558 h 3.185 z m 0.151,-17.389 h -0.091 l -6.822,12.118 h 6.513 z"
   id="path107" />
	<path
   style="clip-rule:evenodd;fill:#ffffff;fill-rule:evenodd"
   d="m 387.984,679.763 h 6.376 l -3.255,11.016 h -6.643 c 0.805,-2.73 0.922,-6.034 -2.826,-6.034 -2.369,0 -4.404,1.051 -5.029,3.158 -0.726,2.443 0.288,2.972 6.257,5.94 4.549,2.249 6.799,4.119 4.98,10.251 -2.185,7.371 -7.257,10.536 -13.765,10.536 -2.973,0 -5.161,-0.48 -5.929,-3.404 h -0.088 l -0.835,2.827 h -6.642 l 3.518,-11.878 h 7.068 c -0.58,1.963 -0.876,3.688 -0.383,4.935 0.493,1.249 1.577,1.957 3.599,1.957 2.068,0 4.105,-1.338 4.812,-3.727 0.765,-2.586 -0.184,-3.452 -6.113,-5.991 -3.482,-1.485 -6.822,-3.591 -5.164,-9.194 2.202,-7.424 6.651,-10.964 13.293,-10.964 2.281,0 5.488,0.668 5.897,3.207 h 0.088 z"
   id="path108" />
	<polygon
   style="clip-rule:evenodd;fill:#ffffff;fill-rule:evenodd"
   points="424.736,685.318 422.448,685.318 410.996,695.618 416.576,708.496 418.39,708.496 416.743,714.054 403.249,714.054 404.896,708.496 407.224,708.496 402.654,696.714 402.566,696.714 399.079,708.496 401.924,708.496 400.281,714.054 386.829,714.054 388.477,708.496 391.318,708.496 398.188,685.318 395.34,685.318 396.986,679.763 410.431,679.763 408.785,685.318 405.939,685.318 402.996,695.282 413.828,685.318 411.76,685.318 413.408,679.763 426.379,679.763 "
   id="polygon108" />
	<polygon
   style="clip-rule:evenodd;fill:#ffffff;fill-rule:evenodd"
   points="436.315,699.206 433.382,699.206 430.629,708.496 440.239,708.496 441.929,702.801 448.304,702.801 444.972,714.054 418.381,714.054 420.029,708.496 422.873,708.496 429.732,685.318 426.888,685.318 428.535,679.763 455.122,679.763 451.968,690.442 445.582,690.442 447.099,685.318 437.491,685.318 434.939,693.935 437.871,693.935 438.951,690.3 443.949,690.3 440.23,702.851 435.231,702.851 "
   id="polygon109" />
	<polygon
   style="clip-rule:evenodd;fill:#ffffff;fill-rule:evenodd"
   points="468.81,714.054 453.637,714.054 455.288,708.496 458.736,708.496 465.596,685.318 462.149,685.318 460.196,691.931 453.553,691.931 457.155,679.763 485.602,679.763 482.002,691.931 475.36,691.931 477.317,685.318 473.873,685.318 467.004,708.496 470.453,708.496 "
   id="polygon110" />
	<path
   style="clip-rule:evenodd;fill:#ffffff;fill-rule:evenodd"
   d="m 488.045,685.318 h -2.849 l 1.647,-5.554 h 16.685 c 5.126,0 8.763,1.963 6.885,8.333 -1.323,4.454 -4.388,7.662 -8.646,8.379 l -0.036,0.096 c 4.218,0.34 5.66,3.452 4.26,8.193 -2.096,7.085 -7.28,9.29 -13.135,9.29 h -16.17 l 1.648,-5.558 h 2.846 z m 7.876,8.617 c 3.058,0 5.072,-1.096 6.148,-4.74 1.029,-3.493 -0.752,-4.165 -3.51,-4.165 h -2.67 l -2.64,8.906 h 2.672 z m -3.835,14.849 c 2.715,0 5.124,-1.434 6.071,-4.645 1.076,-3.64 -0.047,-4.933 -3.235,-4.933 h -3.232 l -2.837,9.578 z"
   id="path110" />
	<path
   style="clip-rule:evenodd;fill:#ffffff;fill-rule:evenodd"
   d="m 527.704,704.24 h -10.13 l -2.552,4.257 h 3.321 l -1.648,5.558 h -12.42 l 1.648,-5.558 h 1.853 l 18.035,-28.733 h 9.576 l 0.93,28.733 h 1.767 l -1.648,5.558 h -13.579 l 1.647,-5.558 h 3.192 z m 0.154,-17.389 h -0.094 l -6.818,12.118 h 6.511 z"
   id="path111" />
	<polygon
   style="clip-rule:evenodd;fill:#ffffff;fill-rule:evenodd"
   points="539.884,708.496 542.735,708.496 549.601,685.318 546.754,685.318 548.393,679.763 563.738,679.763 562.092,685.318 557.866,685.318 551.004,708.496 557.773,708.496 559.957,701.124 566.854,701.124 563.022,714.054 538.245,714.054 "
   id="polygon111" />
	<polygon
   style="clip-rule:evenodd;fill:#ffffff;fill-rule:evenodd"
   points="566.649,708.496 569.491,708.496 576.354,685.318 573.51,685.318 575.159,679.763 590.5,679.763 588.853,685.318 584.628,685.318 577.771,708.496 584.534,708.496 586.719,701.124 593.615,701.124 589.782,714.054 565.002,714.054 "
   id="polygon112" />
	<path
   style="clip-rule:evenodd;fill:#095ba6;fill-rule:evenodd"
   d="m 620.952,717.698 h -5.915 v 14.352 h -2.663 v -14.352 h -5.905 v -1.851 h 14.483 z m 13.203,12.027 c 1.102,-2.501 2.246,-4.817 3.377,-7.068 l 3.409,-6.81 h 4.271 v 16.203 h -2.599 v -7.143 c 0,-2.41 0.03,-4.815 0.085,-7.427 h -0.12 c -1.178,2.641 -2.389,5.046 -3.588,7.449 l -3.529,7.121 h -2.791 l -3.524,-7.159 c -1.195,-2.417 -2.373,-4.799 -3.56,-7.41 h -0.085 c 0.034,2.641 0.06,5.023 0.06,7.427 v 7.143 h -2.526 v -16.203 h 4.285 l 3.396,6.81 c 1.152,2.3 2.283,4.602 3.329,7.068 h 0.11 z"
   id="path112"
   inkscape:label="path112" />
	
	<path
   style="clip-rule:evenodd;fill:#095ba6;fill-rule:evenodd"
   d="m 699.998,352.513 c 0,-3.679 2.779,-6.457 6.329,-6.457 3.521,0 6.29,2.779 6.29,6.457 0,3.738 -2.77,6.49 -6.29,6.49 -3.551,0.001 -6.329,-2.752 -6.329,-6.49 z m 6.328,7.788 c 4.238,0 7.852,-3.29 7.852,-7.787 0,-4.46 -3.614,-7.752 -7.852,-7.752 -4.276,0 -7.894,3.291 -7.894,7.752 0,4.497 3.619,7.787 7.894,7.787 z m -1.647,-7.176 h 1.562 l 2.364,3.886 h 1.518 l -2.543,-3.948 c 1.315,-0.16 2.321,-0.864 2.321,-2.462 0,-1.766 -1.049,-2.548 -3.162,-2.548 h -3.418 v 8.958 h 1.357 v -3.886 z m 0,-1.154 v -2.77 h 1.853 c 0.946,0 1.954,0.206 1.954,1.311 0,1.382 -1.021,1.459 -2.177,1.459 z"
   id="path113" /><path
   style="clip-rule:evenodd;display:inline;fill:#095ba6;fill-rule:evenodd"
   d="m 573.276,327.34 18.239,-27.684 0.973,27.684 z m 73.025,-0.368 18.214,-27.591 0.921,27.591 z m 47.018,33.342 -5.893,-86.239 h -47.245 l -5.573,19.707 c 0,0 7.238,0 7.326,0 l -23.316,36.988 -3.278,-56.696 h -47.924 l -5.44,19.62 7.31,0.087 -31.298,47.475 -25.724,0.139 c -2.706,0 -13.151,-2.735 -13.151,-15.635 0,-12.904 12.28,-31.634 24.758,-31.634 l 5.232,0.122 c -0.879,3.181 -2.723,9.785 -2.723,9.785 h 22.951 l 8.244,-29.96 -37.033,-0.126 c -16.44,0 -38.074,15.812 -43.698,32.044 l 9.215,-31.901 -31.489,-0.017 -5.549,19.707 8.142,-0.038 -8.193,28.854 -20.561,-48.414 h -29.467 l -5.525,19.609 h 8.077 l -18.256,66.491 h 23.556 c 0,0 9.064,-32.953 11.398,-41.439 3.316,8.018 17.138,41.439 17.138,41.439 l 26.22,-0.013 11.995,-42.221 c -1.058,6.288 -1.114,12.868 -0.013,19.365 2.311,13.846 15.767,22.865 30.47,22.865 l 47.574,0.004 8.168,-12.371 h 33.563 l 0.683,12.235 h 29.752 l 7.571,-12.235 h 34.337 l 1.339,12.371 z"
   id="path114"
   inkscape:label="path114" />
</g>
</svg>
